<svg width="50" height="50" viewBox="0 0 50 50" fill="none" xmlns="http://www.w3.org/2000/svg">
<rect width="50" height="50" fill="black"/>
<path d="M23.281 17.7V31H21.894V24.863H13.572V31H12.166V17.7H13.572V23.628H21.894V17.7H23.281ZM33.3981 31.114C32.0807 31.114 30.8901 30.8227 29.8261 30.24C28.7747 29.6573 27.9451 28.853 27.3371 27.827C26.7417 26.7883 26.4441 25.6293 26.4441 24.35C26.4441 23.0707 26.7417 21.918 27.3371 20.892C27.9451 19.8533 28.7811 19.0427 29.8451 18.46C30.9091 17.8773 32.0997 17.586 33.4171 17.586C34.4051 17.586 35.3171 17.7507 36.1531 18.08C36.9891 18.4093 37.6984 18.8907 38.2811 19.524L37.3881 20.417C36.3494 19.3657 35.0384 18.84 33.4551 18.84C32.4037 18.84 31.4474 19.0807 30.5861 19.562C29.7247 20.0433 29.0471 20.702 28.5531 21.538C28.0717 22.374 27.8311 23.3113 27.8311 24.35C27.8311 25.3887 28.0717 26.326 28.5531 27.162C29.0471 27.998 29.7247 28.6567 30.5861 29.138C31.4474 29.6193 32.4037 29.86 33.4551 29.86C35.0511 29.86 36.3621 29.328 37.3881 28.264L38.2811 29.157C37.6984 29.7903 36.9827 30.278 36.1341 30.62C35.2981 30.9493 34.3861 31.114 33.3981 31.114Z" fill="white"/>
</svg>
