<svg width="234" height="50" viewBox="0 0 234 50" fill="none" xmlns="http://www.w3.org/2000/svg">
<path d="M85.125 16.5V34H81.075V26.825H73.125V34H69.075V16.5H73.125V23.4H81.075V16.5H85.125ZM94.4154 20.35C96.4988 20.35 98.0988 20.85 99.2154 21.85C100.332 22.8333 100.89 24.325 100.89 26.325V34H97.2404V32.325C96.5071 33.575 95.1404 34.2 93.1404 34.2C92.1071 34.2 91.2071 34.025 90.4404 33.675C89.6904 33.325 89.1154 32.8417 88.7154 32.225C88.3154 31.6083 88.1154 30.9083 88.1154 30.125C88.1154 28.875 88.5821 27.8917 89.5154 27.175C90.4654 26.4583 91.9238 26.1 93.8904 26.1H96.9904C96.9904 25.25 96.7321 24.6 96.2154 24.15C95.6988 23.6833 94.9238 23.45 93.8904 23.45C93.1738 23.45 92.4654 23.5667 91.7654 23.8C91.0821 24.0167 90.4988 24.3167 90.0154 24.7L88.6154 21.975C89.3488 21.4583 90.2238 21.0583 91.2404 20.775C92.2738 20.4917 93.3321 20.35 94.4154 20.35ZM94.1154 31.575C94.7821 31.575 95.3738 31.425 95.8904 31.125C96.4071 30.8083 96.7738 30.35 96.9904 29.75V28.375H94.3154C92.7154 28.375 91.9154 28.9 91.9154 29.95C91.9154 30.45 92.1071 30.85 92.4904 31.15C92.8904 31.4333 93.4321 31.575 94.1154 31.575ZM112.37 20.35C113.62 20.35 114.753 20.6417 115.77 21.225C116.803 21.7917 117.612 22.6 118.195 23.65C118.778 24.6833 119.07 25.8917 119.07 27.275C119.07 28.6583 118.778 29.875 118.195 30.925C117.612 31.9583 116.803 32.7667 115.77 33.35C114.753 33.9167 113.62 34.2 112.37 34.2C110.653 34.2 109.303 33.6583 108.32 32.575V38.85H104.42V20.55H108.145V22.1C109.112 20.9333 110.52 20.35 112.37 20.35ZM111.695 31C112.695 31 113.512 30.6667 114.145 30C114.795 29.3167 115.12 28.4083 115.12 27.275C115.12 26.1417 114.795 25.2417 114.145 24.575C113.512 23.8917 112.695 23.55 111.695 23.55C110.695 23.55 109.87 23.8917 109.22 24.575C108.587 25.2417 108.27 26.1417 108.27 27.275C108.27 28.4083 108.587 29.3167 109.22 30C109.87 30.6667 110.695 31 111.695 31ZM129.631 20.35C130.881 20.35 132.014 20.6417 133.031 21.225C134.064 21.7917 134.873 22.6 135.456 23.65C136.039 24.6833 136.331 25.8917 136.331 27.275C136.331 28.6583 136.039 29.875 135.456 30.925C134.873 31.9583 134.064 32.7667 133.031 33.35C132.014 33.9167 130.881 34.2 129.631 34.2C127.914 34.2 126.564 33.6583 125.581 32.575V38.85H121.681V20.55H125.406V22.1C126.373 20.9333 127.781 20.35 129.631 20.35ZM128.956 31C129.956 31 130.773 30.6667 131.406 30C132.056 29.3167 132.381 28.4083 132.381 27.275C132.381 26.1417 132.056 25.2417 131.406 24.575C130.773 23.8917 129.956 23.55 128.956 23.55C127.956 23.55 127.131 23.8917 126.481 24.575C125.848 25.2417 125.531 26.1417 125.531 27.275C125.531 28.4083 125.848 29.3167 126.481 30C127.131 30.6667 127.956 31 128.956 31ZM151.925 20.55L145.85 34.825C145.234 36.375 144.467 37.4667 143.55 38.1C142.65 38.7333 141.559 39.05 140.275 39.05C139.575 39.05 138.884 38.9417 138.2 38.725C137.517 38.5083 136.959 38.2083 136.525 37.825L137.95 35.05C138.25 35.3167 138.592 35.525 138.975 35.675C139.375 35.825 139.767 35.9 140.15 35.9C140.684 35.9 141.117 35.7667 141.45 35.5C141.784 35.25 142.084 34.825 142.35 34.225L142.4 34.1L136.575 20.55H140.6L144.375 29.675L148.175 20.55H151.925ZM167.097 34.2C165.664 34.2 164.372 33.9083 163.222 33.325C162.089 32.725 161.197 31.9 160.547 30.85C159.914 29.8 159.597 28.6083 159.597 27.275C159.597 25.9417 159.914 24.75 160.547 23.7C161.197 22.65 162.089 21.8333 163.222 21.25C164.372 20.65 165.664 20.35 167.097 20.35C168.514 20.35 169.747 20.65 170.797 21.25C171.864 21.8333 172.639 22.675 173.122 23.775L170.097 25.4C169.397 24.1667 168.389 23.55 167.072 23.55C166.055 23.55 165.214 23.8833 164.547 24.55C163.88 25.2167 163.547 26.125 163.547 27.275C163.547 28.425 163.88 29.3333 164.547 30C165.214 30.6667 166.055 31 167.072 31C168.405 31 169.414 30.3833 170.097 29.15L173.122 30.8C172.639 31.8667 171.864 32.7 170.797 33.3C169.747 33.9 168.514 34.2 167.097 34.2ZM181.596 34.2C180.18 34.2 178.905 33.9083 177.771 33.325C176.655 32.725 175.78 31.9 175.146 30.85C174.513 29.8 174.196 28.6083 174.196 27.275C174.196 25.9417 174.513 24.75 175.146 23.7C175.78 22.65 176.655 21.8333 177.771 21.25C178.905 20.65 180.18 20.35 181.596 20.35C183.013 20.35 184.28 20.65 185.396 21.25C186.513 21.8333 187.388 22.65 188.021 23.7C188.655 24.75 188.971 25.9417 188.971 27.275C188.971 28.6083 188.655 29.8 188.021 30.85C187.388 31.9 186.513 32.725 185.396 33.325C184.28 33.9083 183.013 34.2 181.596 34.2ZM181.596 31C182.596 31 183.413 30.6667 184.046 30C184.696 29.3167 185.021 28.4083 185.021 27.275C185.021 26.1417 184.696 25.2417 184.046 24.575C183.413 23.8917 182.596 23.55 181.596 23.55C180.596 23.55 179.771 23.8917 179.121 24.575C178.471 25.2417 178.146 26.1417 178.146 27.275C178.146 28.4083 178.471 29.3167 179.121 30C179.771 30.6667 180.596 31 181.596 31ZM205.278 15.45V34H201.553V32.45C200.587 33.6167 199.187 34.2 197.353 34.2C196.087 34.2 194.937 33.9167 193.903 33.35C192.887 32.7833 192.087 31.975 191.503 30.925C190.92 29.875 190.628 28.6583 190.628 27.275C190.628 25.8917 190.92 24.675 191.503 23.625C192.087 22.575 192.887 21.7667 193.903 21.2C194.937 20.6333 196.087 20.35 197.353 20.35C199.07 20.35 200.412 20.8917 201.378 21.975V15.45H205.278ZM198.028 31C199.012 31 199.828 30.6667 200.478 30C201.128 29.3167 201.453 28.4083 201.453 27.275C201.453 26.1417 201.128 25.2417 200.478 24.575C199.828 23.8917 199.012 23.55 198.028 23.55C197.028 23.55 196.203 23.8917 195.553 24.575C194.903 25.2417 194.578 26.1417 194.578 27.275C194.578 28.4083 194.903 29.3167 195.553 30C196.203 30.6667 197.028 31 198.028 31ZM222.063 27.325C222.063 27.375 222.038 27.725 221.988 28.375H211.813C211.996 29.2083 212.43 29.8667 213.113 30.35C213.796 30.8333 214.646 31.075 215.663 31.075C216.363 31.075 216.98 30.975 217.513 30.775C218.063 30.5583 218.571 30.225 219.038 29.775L221.113 32.025C219.846 33.475 217.996 34.2 215.563 34.2C214.046 34.2 212.705 33.9083 211.538 33.325C210.371 32.725 209.471 31.9 208.838 30.85C208.205 29.8 207.888 28.6083 207.888 27.275C207.888 25.9583 208.196 24.775 208.813 23.725C209.446 22.6583 210.305 21.8333 211.388 21.25C212.488 20.65 213.713 20.35 215.063 20.35C216.38 20.35 217.571 20.6333 218.638 21.2C219.705 21.7667 220.538 22.5833 221.138 23.65C221.755 24.7 222.063 25.925 222.063 27.325ZM215.088 23.3C214.205 23.3 213.463 23.55 212.863 24.05C212.263 24.55 211.896 25.2333 211.763 26.1H218.388C218.255 25.25 217.888 24.575 217.288 24.075C216.688 23.5583 215.955 23.3 215.088 23.3ZM228.384 22.325C228.851 21.675 229.476 21.1833 230.259 20.85C231.059 20.5167 231.976 20.35 233.009 20.35V23.95C232.576 23.9167 232.284 23.9 232.134 23.9C231.018 23.9 230.143 24.2167 229.509 24.85C228.876 25.4667 228.559 26.4 228.559 27.65V34H224.659V20.55H228.384V22.325Z" fill="black"/>
<rect width="50" height="50" fill="black"/>
<path d="M23.281 17.7V31H21.894V24.863H13.572V31H12.166V17.7H13.572V23.628H21.894V17.7H23.281ZM33.3981 31.114C32.0807 31.114 30.8901 30.8227 29.8261 30.24C28.7747 29.6573 27.9451 28.853 27.3371 27.827C26.7417 26.7883 26.4441 25.6293 26.4441 24.35C26.4441 23.0707 26.7417 21.918 27.3371 20.892C27.9451 19.8533 28.7811 19.0427 29.8451 18.46C30.9091 17.8773 32.0997 17.586 33.4171 17.586C34.4051 17.586 35.3171 17.7507 36.1531 18.08C36.9891 18.4093 37.6984 18.8907 38.2811 19.524L37.3881 20.417C36.3494 19.3657 35.0384 18.84 33.4551 18.84C32.4037 18.84 31.4474 19.0807 30.5861 19.562C29.7247 20.0433 29.0471 20.702 28.5531 21.538C28.0717 22.374 27.8311 23.3113 27.8311 24.35C27.8311 25.3887 28.0717 26.326 28.5531 27.162C29.0471 27.998 29.7247 28.6567 30.5861 29.138C31.4474 29.6193 32.4037 29.86 33.4551 29.86C35.0511 29.86 36.3621 29.328 37.3881 28.264L38.2811 29.157C37.6984 29.7903 36.9827 30.278 36.1341 30.62C35.2981 30.9493 34.3861 31.114 33.3981 31.114Z" fill="white"/>
</svg>
